<svg xmlns="http://www.w3.org/2000/svg" xmlns:xlink="http://www.w3.org/1999/xlink" width="42" height="42" viewBox="0 0 42 42">
  <defs>
    <linearGradient id="linear-gradient" x1="2.99" y1="-5.431" x2="2.88" y2="1.704" gradientUnits="objectBoundingBox">
      <stop offset="0" stop-color="#66d5f7"/>
      <stop offset="1" stop-color="#0eafe1"/>
    </linearGradient>
  </defs>
  <g id="Album" transform="translate(-69 38.5)">
    <g id="Group_1487" data-name="Group 1487" transform="translate(69 -38.5)">
      <path id="Path_857" data-name="Path 857" d="M556.807,417.111a17.835,17.835,0,0,1-2.507-2.437,1.658,1.658,0,1,0-2.534,2.139,21.169,21.169,0,0,0,2.974,2.891,1.658,1.658,0,1,0,2.066-2.593Z" transform="translate(-546.819 -382.273)" fill="url(#linear-gradient)"/>
      <path id="Path_858" data-name="Path 858" d="M542,202a21.007,21.007,0,0,0-18.594,30.769,1.658,1.658,0,0,0,2.934-1.544,17.662,17.662,0,1,1,8.911,8.127,1.658,1.658,0,1,0-1.266,3.064A21,21,0,1,0,542,202Z" transform="translate(-521 -202)" fill="url(#linear-gradient)"/>
      <path id="Path_859" data-name="Path 859" d="M615.592,304.605a8.013,8.013,0,1,0-8.013-8.013A8.022,8.022,0,0,0,615.592,304.605Zm0-12.711a4.7,4.7,0,1,1-4.7,4.7A4.7,4.7,0,0,1,615.592,291.895Z" transform="translate(-594.592 -275.592)" fill="url(#linear-gradient)"/>
    </g>
  </g>
</svg>
