<svg xmlns="http://www.w3.org/2000/svg" xmlns:xlink="http://www.w3.org/1999/xlink" width="42" height="40.108" viewBox="0 0 42 40.108">
  <defs>
    <linearGradient id="linear-gradient" x1="0.738" x2="0.119" y2="1" gradientUnits="objectBoundingBox">
      <stop offset="0" stop-color="#66d5f7"/>
      <stop offset="1" stop-color="#0eafe1"/>
    </linearGradient>
  </defs>
  <g id="Artists" transform="translate(-873 -208.501)">
    <path id="Path_860" data-name="Path 860" d="M914.918,223.7a1.674,1.674,0,0,0-1.251-1.122l-12.6-2.63-5.59-10.555a1.674,1.674,0,0,0-2.959,0l-5.59,10.555-.114.024a1.674,1.674,0,1,0,.684,3.278l.884-.185a1.674,1.674,0,0,0,1.138-.855L894,213.753l4.478,8.456a1.674,1.674,0,0,0,1.138.855l10.5,2.193-7.184,7.906a1.673,1.673,0,0,0-.419,1.358l1.333,9.513-9.106-4.488a1.676,1.676,0,0,0-1.481,0l-9.106,4.488,1.332-9.513a1.673,1.673,0,0,0-.419-1.358l-7.184-7.906.831-.174a1.674,1.674,0,0,0-.684-3.278l-3.7.772a1.674,1.674,0,0,0-.9,2.765l8.625,9.492L880.4,246.7a1.674,1.674,0,0,0,2.4,1.734l11.2-5.522,11.2,5.522a1.674,1.674,0,0,0,2.4-1.734l-1.662-11.868,8.625-9.492A1.674,1.674,0,0,0,914.918,223.7Z" fill="url(#linear-gradient)"/>
    <path id="Path_861" data-name="Path 861" d="M922.823,294.158a1.677,1.677,0,0,0,.344-.036l1.051-.219a1.674,1.674,0,1,0-.684-3.278l-1.051.219a1.675,1.675,0,0,0,.34,3.314Z" transform="translate(-40.927 -69.775)" fill="url(#linear-gradient)"/>
  </g>
</svg>
