<svg id="Categories_-_Inactive" data-name="Categories - Inactive" xmlns="http://www.w3.org/2000/svg" width="44" height="44" viewBox="0 0 44 44">
  <g id="Layer_1" data-name="Layer 1">
    <path id="Path_885" data-name="Path 885" d="M19.907,0H1.41A1.41,1.41,0,0,0,0,1.41v18.5a1.412,1.412,0,0,0,1.41,1.412H7.179a1.412,1.412,0,0,0,0-2.822H2.822V2.822H18.5V18.5H11.6a1.412,1.412,0,0,0,0,2.822h8.3a1.413,1.413,0,0,0,1.412-1.412V1.41A1.412,1.412,0,0,0,19.907,0Z" fill="#fff"/>
    <path id="Path_886" data-name="Path 886" d="M153.6,0H135.1a1.41,1.41,0,0,0-1.41,1.41v18.5a1.412,1.412,0,0,0,1.41,1.412h18.5a1.412,1.412,0,0,0,1.41-1.412V1.41A1.41,1.41,0,0,0,153.6,0Zm-1.41,18.5H136.5V2.822h15.677Z" transform="translate(-111.005)" fill="#fff"/>
    <path id="Path_887" data-name="Path 887" d="M19.907,133.63H1.41A1.41,1.41,0,0,0,0,135.04v18.505a1.41,1.41,0,0,0,1.41,1.41h18.5a1.412,1.412,0,0,0,1.412-1.41V150.3a1.412,1.412,0,1,0-2.822,0v1.829H2.822V136.45H18.5v9.188a1.412,1.412,0,0,0,2.822,0v-10.6a1.412,1.412,0,0,0-1.41-1.41Z" transform="translate(0 -110.956)" fill="#fff"/>
    <path id="Path_888" data-name="Path 888" d="M153.545,133.63h-9.424a1.41,1.41,0,0,0,0,2.82h8.006v10.317a5.369,5.369,0,0,1-5.36,5.36H136.45V136.45H140a1.41,1.41,0,1,0,0-2.82H135.04a1.41,1.41,0,0,0-1.41,1.41v18.505a1.41,1.41,0,0,0,1.41,1.41h11.727a8.19,8.19,0,0,0,8.18-8.18V135.04a1.41,1.41,0,0,0-1.4-1.41Z" transform="translate(-110.956 -110.956)" fill="#fff"/>
  </g>
</svg>
