<svg xmlns="http://www.w3.org/2000/svg" width="42" height="36" viewBox="0 0 42 36">
  <path id="Path_1119" data-name="Path 1119" d="M76.983,110.24c0-.013,0-.025.007-.038s.007-.037.009-.056,0-.027,0-.041,0-.036.005-.054,0-.028,0-.042,0-.035,0-.052,0-.029,0-.043,0-.034,0-.051,0-.029,0-.044,0-.034-.007-.051,0-.028-.006-.043-.009-.045-.014-.067-.01-.041-.016-.061-.009-.033-.014-.05-.01-.029-.015-.043-.011-.031-.017-.047l-.018-.042-.021-.047-.02-.04-.027-.048-.015-.026-.007-.01c-.01-.016-.021-.032-.032-.049l-.022-.033q-.027-.037-.056-.072h0l-.007-.008-6.721-8.047-.011-.012-.035-.039-.023-.024-.036-.036-.026-.024-.036-.032-.029-.024-.036-.028-.033-.024-.035-.024-.039-.024-.033-.02-.048-.025-.026-.014a1.352,1.352,0,0,0-.157-.065l-.018-.005-.064-.019-.024-.006-.06-.014-.026,0-.058-.01-.028,0-.058-.006-.03,0-.057,0H43.078l-.053,0-.033,0-.054.005-.032,0-.054.009-.03.006-.056.013-.027.007-.062.019-.019.006a1.345,1.345,0,0,0-.158.065l-.016.008-.058.031-.024.014-.048.03-.027.018-.042.03-.028.022-.038.031-.028.025-.034.032-.028.028-.031.033-.027.031-.015.017-6.723,8.049,0,0,0,0c-.02.024-.039.048-.057.073l-.017.025c-.013.019-.026.038-.038.057l-.006.009-.013.022c-.01.018-.02.035-.03.054l-.018.035-.024.052-.016.037c-.007.018-.014.036-.02.054s-.009.024-.013.037-.013.042-.018.064-.005.018-.008.027q-.011.045-.019.09c0,.011,0,.022,0,.033s-.006.041-.008.062,0,.024,0,.037,0,.039,0,.059,0,.025,0,.037,0,.039,0,.059,0,.024,0,.036,0,.041.006.061,0,.022,0,.034.007.044.011.065,0,.019.005.029q.009.042.021.084l0,.009q.012.043.028.086l0,0,.012.031c.008.02.016.039.024.058l.016.033c.009.018.018.036.027.054l.018.032.033.054.019.029c.013.019.027.038.04.056l.012.017,19.635,25.227c.019.025.04.05.061.074l0,0a1.332,1.332,0,0,0,.107.109l.007.006.047.04.014.011.047.036.011.008.057.038.021.013.038.023.026.014.016.009.015.007.044.021.031.014.039.016.037.014.033.011.043.014.027.007.049.013.022,0,.054.011.019,0,.058.008.019,0,.057,0h.153l.057,0,.019,0,.058-.008.018,0,.055-.011.021,0,.05-.013.026-.007.044-.014.032-.011.038-.015.038-.016.033-.015.043-.021.016-.008.016-.009.025-.014.04-.024.02-.012.057-.038.01-.007.048-.036.013-.01.048-.041.007-.006a1.337,1.337,0,0,0,.108-.109l0,0c.021-.024.041-.049.061-.074l19.635-25.227.014-.02.037-.051.021-.033.03-.049.021-.036.024-.048.019-.039c.007-.016.014-.032.02-.049s.011-.027.016-.04v0c.007-.02.013-.04.02-.061s.01-.035.015-.053S76.979,110.261,76.983,110.24Zm-3.851-1.2-7.4,1.35,3.423-6.115Zm-11.826,4.548-5.293,17.033L50.72,113.591Zm-.739-2.7H51.459l4.554-6.6Zm2.457-1.206-4.434-6.428h8.032Zm-20.151-5.4,3.423,6.115-7.4-1.35Zm10.562-1.025L49,109.681l-3.6-6.428Zm-13.822,8.67,8.217,1.5L52.513,128.5Zm24.464,1.88.118-.381,8.217-1.5L59.513,128.5Z" transform="translate(-35.013 -100.549)" fill="#fff"/>
</svg>
