<?xml version="1.0" encoding="utf-8"?>
<!-- Generator: Adobe Illustrator 23.0.3, SVG Export Plug-In . SVG Version: 6.00 Build 0)  -->
<svg version="1.1" id="Layer_1" xmlns="http://www.w3.org/2000/svg" xmlns:xlink="http://www.w3.org/1999/xlink" x="0px" y="0px"
	 viewBox="0 0 42 42" style="enable-background:new 0 0 42 42;" xml:space="preserve">
<style type="text/css">
	.st0{fill:#FFFFFF;}
</style>
<path class="st0" d="M36.2,0H5.8C2.6,0,0,2.6,0,5.8v30.3C0,39.4,2.6,42,5.8,42h30.3c3.2,0,5.8-2.6,5.8-5.8V5.8C42,2.6,39.4,0,36.2,0
	z M31.7,18.8L21.5,29c-0.3,0.3-0.6,0.4-1,0.4c-0.4,0-0.7-0.1-1-0.4L9.4,18.8c-0.4-0.4-0.5-1-0.3-1.5c0.2-0.5,0.7-0.8,1.2-0.8h20.4
	c0.5,0,1,0.3,1.2,0.8C32.2,17.9,32.1,18.4,31.7,18.8z"/>
</svg>
