<svg xmlns="http://www.w3.org/2000/svg" width="42.002" height="42.001" viewBox="0 0 42.002 42.001">
  <g id="Group_1637" data-name="Group 1637" transform="translate(1356.227 -87.185)">
    <path id="Path_1113" data-name="Path 1113" d="M-1320.061,87.185h-30.329a5.843,5.843,0,0,0-5.836,5.836v30.33a5.843,5.843,0,0,0,5.836,5.836h30.329a5.843,5.843,0,0,0,5.836-5.836V93.021A5.843,5.843,0,0,0-1320.061,87.185Zm3.142,36.165a3.146,3.146,0,0,1-3.142,3.142h-30.329a3.146,3.146,0,0,1-3.142-3.142V93.021a3.146,3.146,0,0,1,3.142-3.142h30.329a3.146,3.146,0,0,1,3.142,3.142Z" fill="#d5d5d5"/>
    <path id="Path_1114" data-name="Path 1114" d="M-1123.214,441.524h-20.375a1.347,1.347,0,0,0-1.244.831,1.347,1.347,0,0,0,.292,1.468l10.188,10.188a1.342,1.342,0,0,0,.952.394,1.342,1.342,0,0,0,.952-.394l10.188-10.187a1.347,1.347,0,0,0,.292-1.468A1.347,1.347,0,0,0-1123.214,441.524Z" transform="translate(-201.805 -338.432)" fill="#d5d5d5"/>
  </g>
</svg>
