<svg id="Fire_Icon" data-name="Fire Icon" xmlns="http://www.w3.org/2000/svg" width="14.897" height="19" viewBox="0 0 14.897 19">
  <g id="Layer_1" data-name="Layer 1">
    <path id="Path_892" data-name="Path 892" d="M7.449,19a7.215,7.215,0,0,1-2.874-.6A7.669,7.669,0,0,1,.6,14.424,7.215,7.215,0,0,1,0,11.55,6.621,6.621,0,0,1,.654,8.682a4.332,4.332,0,0,1,.313-.53.6.6,0,0,1,1.1.341,4.273,4.273,0,0,0,.7,2.683,1.246,1.246,0,0,0,.969.432.832.832,0,0,0,.722-.256c.311-.366.181-1.115.017-2.059a13.321,13.321,0,0,1-.256-2.3c0-.091,0-.205-.007-.337V6.645c-.035-1.2-.108-3.7,1.449-5.307A4.761,4.761,0,0,1,8.592,0a.6.6,0,0,1,.651.774,4.8,4.8,0,0,0-.208,1.343,4.631,4.631,0,0,0,2.582,4.052A7.7,7.7,0,0,1,13.725,8.2,5.847,5.847,0,0,1,14.9,11.55,7.457,7.457,0,0,1,7.449,19Z" transform="translate(0 0.002)" fill="#fff"/>
  </g>
</svg>
