<svg xmlns="http://www.w3.org/2000/svg" width="52" height="52" viewBox="0 0 52 52">
  <g id="Fire_Button_-_Active" data-name="Fire Button - Active" transform="translate(18328 1456)">
    <g id="Layer_1" data-name="Layer 1" transform="translate(-18313 -1444)">
      <path id="Path_892" data-name="Path 892" d="M10.977,28a10.632,10.632,0,0,1-4.236-.88A11.3,11.3,0,0,1,.88,21.257,10.633,10.633,0,0,1,0,17.021a9.757,9.757,0,0,1,.964-4.226,6.384,6.384,0,0,1,.461-.78.891.891,0,0,1,1.62.5A6.3,6.3,0,0,0,4.072,16.47a1.836,1.836,0,0,0,1.428.637,1.227,1.227,0,0,0,1.064-.377c.458-.54.267-1.643.025-3.034A19.631,19.631,0,0,1,6.21,10.3c0-.134,0-.3-.01-.5V9.794c-.052-1.771-.159-5.458,2.135-7.82A7.016,7.016,0,0,1,12.662,0a.889.889,0,0,1,.959,1.14,7.077,7.077,0,0,0-.307,1.979c-.012,1.661.639,4.046,3.8,5.971a11.342,11.342,0,0,1,3.107,2.993,8.617,8.617,0,0,1,1.728,4.933A10.99,10.99,0,0,1,10.977,28Z" transform="translate(0 0.002)" fill="#fff"/>
    </g>
    <g id="Group_1511" data-name="Group 1511" transform="translate(-18404 -2321.5)">
      <g id="Path_874" data-name="Path 874" transform="translate(76 865.5)" fill="none">
        <path d="M26,0A26,26,0,1,1,0,26,26,26,0,0,1,26,0Z" stroke="none"/>
        <path d="M 26 2 C 22.75914001464844 2 19.61627960205078 2.634281158447266 16.65872955322266 3.885219573974609 C 13.80107116699219 5.093910217285156 11.23419952392578 6.824668884277344 9.029441833496094 9.029441833496094 C 6.824668884277344 11.23419952392578 5.093910217285156 13.80107116699219 3.885219573974609 16.65872955322266 C 2.634281158447266 19.61627960205078 2 22.75914001464844 2 26 C 2 29.24085998535156 2.634281158447266 32.38372039794922 3.885219573974609 35.34127044677734 C 5.093910217285156 38.19892883300781 6.824668884277344 40.76580047607422 9.029441833496094 42.97055816650391 C 11.23419952392578 45.17533111572266 13.80107116699219 46.90608978271484 16.65872955322266 48.11478042602539 C 19.61627960205078 49.36571884155273 22.75914001464844 50 26 50 C 29.24085998535156 50 32.38372039794922 49.36571884155273 35.34127044677734 48.11478042602539 C 38.19892883300781 46.90608978271484 40.76580047607422 45.17533111572266 42.97055816650391 42.97055816650391 C 45.17533111572266 40.76580047607422 46.90608978271484 38.19892883300781 48.11478042602539 35.34127044677734 C 49.36571884155273 32.38372039794922 50 29.24085998535156 50 26 C 50 22.75914001464844 49.36571884155273 19.61627960205078 48.11478042602539 16.65872955322266 C 46.90608978271484 13.80107116699219 45.17533111572266 11.23419952392578 42.97055816650391 9.029441833496094 C 40.76580047607422 6.824668884277344 38.19892883300781 5.093910217285156 35.34127044677734 3.885219573974609 C 32.38372039794922 2.634281158447266 29.24085998535156 2 26 2 M 26 0 C 40.35939788818359 0 52 11.64059829711914 52 26 C 52 40.35939788818359 40.35939788818359 52 26 52 C 11.64059829711914 52 0 40.35939788818359 0 26 C 0 11.64059829711914 11.64059829711914 0 26 0 Z" stroke="none" fill="#fff"/>
      </g>
    </g>
  </g>
</svg>
