<svg id="Home_-_Inactive" data-name="Home - Inactive" xmlns="http://www.w3.org/2000/svg" width="44" height="43.996" viewBox="0 0 44 43.996">
  <g id="Layer_1" data-name="Layer 1" transform="translate(0 0)">
    <path id="Path_1" data-name="Path 1" d="M38.23,44H26.914A1.407,1.407,0,0,1,25.507,42.6V28.608a.141.141,0,0,0,0-.053H18.5a.141.141,0,0,0,0,.053V42.416a1.264,1.264,0,0,1,0,.185,1.407,1.407,0,0,1-1.407,1.407H5.769A5.878,5.878,0,0,1,0,38.044V21.212a6.034,6.034,0,0,1,1.666-4.193c.017-.019.036-.037.054-.054L17.927,1.754a5.63,5.63,0,0,1,8.145,0L42.279,16.964c.019.017.037.036.054.054A6.027,6.027,0,0,1,44,21.212V23.84a1.407,1.407,0,0,1-2.813,0V21.206a3.283,3.283,0,0,0-.862-2.225L24.114,3.776l-.054-.053a2.813,2.813,0,0,0-4.127,0l-.054.053L3.677,18.982a3.278,3.278,0,0,0-.864,2.225V38.039a3.058,3.058,0,0,0,2.949,3.149h9.91V28.608a2.814,2.814,0,0,1,2.754-2.866h7.142a2.814,2.814,0,0,1,2.752,2.866V41.189h9.91a3.058,3.058,0,0,0,2.949-3.149V35.474a1.407,1.407,0,1,1,2.813,0v2.572A5.873,5.873,0,0,1,38.23,44Z" transform="translate(0 -0.011)" fill="#fff"/>
  </g>
</svg>
