<svg id="My_Library_-_Inactive" data-name="My Library - Inactive" xmlns="http://www.w3.org/2000/svg" width="44" height="44.054" viewBox="0 0 44 44.054">
  <g id="Layer_1" data-name="Layer 1" transform="translate(0 0)">
    <path id="Path_2" data-name="Path 2" d="M43.6,14.188a1.4,1.4,0,0,0-1.018-.441h-.475l.2-3.055a1.4,1.4,0,0,0-1.4-1.487h-.429l.216-3.362a1.4,1.4,0,0,0-1.4-1.488H37.87a1.419,1.419,0,0,0,.024-.19l.17-2.67A1.4,1.4,0,0,0,36.67,0H7.3A1.4,1.4,0,0,0,5.9,1.488l.17,2.658a1.346,1.346,0,0,0,.029.2H4.671a1.4,1.4,0,0,0-1.4,1.488L3.492,9.2H3.059a1.4,1.4,0,0,0-1.4,1.493l.188,3.055H1.384a1.4,1.4,0,0,0-1.4,1.488l1.763,27.51a1.4,1.4,0,0,0,1.4,1.308H40.82a1.4,1.4,0,0,0,1.4-1.308l1.763-27.51A1.407,1.407,0,0,0,43.6,14.188ZM8.866,3.966,8.792,2.8H35.178L35.1,3.985a1.329,1.329,0,0,0,.025.368H8.837A1.358,1.358,0,0,0,8.866,3.966ZM6.287,9.075l-.124-1.93H37.807L37.677,9.2H6.288C6.29,9.164,6.288,9.117,6.287,9.075ZM4.551,12H39.421l-.114,1.751H4.663ZM2.87,16.544H6.095l.95,24.713H4.459ZM39.511,41.257H9.842l-.95-24.713H41.1Z" transform="translate(0.018 0)" fill="#fff"/>
    <path id="Path_3" data-name="Path 3" d="M107.34,142.216a4.771,4.771,0,0,0,5.025-4.467,2.5,2.5,0,0,0-.014-.319.957.957,0,0,0,0-.1v-9.949l3.491,1.505a1.4,1.4,0,1,0,1.112-2.566l-5.431-2.352a1.4,1.4,0,0,0-1.96,1.285v8.486a5.514,5.514,0,0,0-2.218-.458,4.5,4.5,0,1,0-.005,8.935Z" transform="translate(-84.952 -102.832)" fill="#fff"/>
  </g>
</svg>
