<svg id="Fire_Item_-_Inactive" data-name="Fire Item - Inactive" xmlns="http://www.w3.org/2000/svg" width="31.363" height="40" viewBox="0 0 31.363 40">
  <g id="Layer_1" data-name="Layer 1">
    <path id="Path_892" data-name="Path 892" d="M15.681,40a15.189,15.189,0,0,1-6.051-1.257,16.144,16.144,0,0,1-8.373-8.373A15.189,15.189,0,0,1,0,24.317a13.938,13.938,0,0,1,1.377-6.038,9.12,9.12,0,0,1,.658-1.115,1.273,1.273,0,0,1,2.314.717c.026,2.61.548,4.616,1.467,5.648a2.623,2.623,0,0,0,2.04.91,1.752,1.752,0,0,0,1.52-.538c.654-.771.381-2.347.035-4.334a28.044,28.044,0,0,1-.54-4.849c0-.191,0-.432-.014-.71v-.017c-.074-2.53-.227-7.8,3.05-11.172A10.023,10.023,0,0,1,18.088.008a1.27,1.27,0,0,1,1.37,1.629,10.11,10.11,0,0,0-.438,2.826c-.017,2.373.913,5.779,5.435,8.53a16.2,16.2,0,0,1,4.439,4.275,12.31,12.31,0,0,1,2.469,7.048A15.7,15.7,0,0,1,15.681,40ZM2.623,23a11.448,11.448,0,0,0-.077,1.316A13.315,13.315,0,0,0,15.685,37.456,13.153,13.153,0,0,0,28.823,24.317c0-3.925-3.325-7.714-5.685-9.151a14.208,14.208,0,0,1-5.386-5.448A11.1,11.1,0,0,1,16.478,4.44a12.314,12.314,0,0,1,.11-1.543,6.659,6.659,0,0,0-2.856,1.7c-2.529,2.6-2.4,7.143-2.334,9.326v.017c.009.3.017.555.017.782a26.12,26.12,0,0,0,.5,4.413,20.254,20.254,0,0,1,.4,3.309,4.613,4.613,0,0,1-.994,3.1,4.305,4.305,0,0,1-3.467,1.444,5.139,5.139,0,0,1-3.939-1.762A7.046,7.046,0,0,1,2.623,23Z" transform="translate(0 0.002)" fill="#fff"/>
  </g>
</svg>
