<svg xmlns="http://www.w3.org/2000/svg" xmlns:xlink="http://www.w3.org/1999/xlink" width="52" height="52" viewBox="0 0 52 52">
  <defs>
    <clipPath id="clip-path">
      <rect width="6.6" height="32" fill="none"/>
    </clipPath>
  </defs>
  <g id="More" transform="translate(-76 -865.5)">
    <g id="Path_874" data-name="Path 874" transform="translate(76 865.5)" fill="none">
      <path d="M26,0A26,26,0,1,1,0,26,26,26,0,0,1,26,0Z" stroke="none"/>
      <path d="M 26 2 C 22.75914001464844 2 19.61627960205078 2.634281158447266 16.65872955322266 3.885219573974609 C 13.80107116699219 5.093910217285156 11.23419952392578 6.824668884277344 9.029441833496094 9.029441833496094 C 6.824668884277344 11.23419952392578 5.093910217285156 13.80107116699219 3.885219573974609 16.65872955322266 C 2.634281158447266 19.61627960205078 2 22.75914001464844 2 26 C 2 29.24085998535156 2.634281158447266 32.38372039794922 3.885219573974609 35.34127044677734 C 5.093910217285156 38.19892883300781 6.824668884277344 40.76580047607422 9.029441833496094 42.97055816650391 C 11.23419952392578 45.17533111572266 13.80107116699219 46.90608978271484 16.65872955322266 48.11478042602539 C 19.61627960205078 49.36571884155273 22.75914001464844 50 26 50 C 29.24085998535156 50 32.38372039794922 49.36571884155273 35.34127044677734 48.11478042602539 C 38.19892883300781 46.90608978271484 40.76580047607422 45.17533111572266 42.97055816650391 42.97055816650391 C 45.17533111572266 40.76580047607422 46.90608978271484 38.19892883300781 48.11478042602539 35.34127044677734 C 49.36571884155273 32.38372039794922 50 29.24085998535156 50 26 C 50 22.75914001464844 49.36571884155273 19.61627960205078 48.11478042602539 16.65872955322266 C 46.90608978271484 13.80107116699219 45.17533111572266 11.23419952392578 42.97055816650391 9.029441833496094 C 40.76580047607422 6.824668884277344 38.19892883300781 5.093910217285156 35.34127044677734 3.885219573974609 C 32.38372039794922 2.634281158447266 29.24085998535156 2 26 2 M 26 0 C 40.35939788818359 0 52 11.64059829711914 52 26 C 52 40.35939788818359 40.35939788818359 52 26 52 C 11.64059829711914 52 0 40.35939788818359 0 26 C 0 11.64059829711914 11.64059829711914 0 26 0 Z" stroke="none" fill="#fff"/>
    </g>
    <g id="more-2" data-name="more" transform="translate(118.3 888.2) rotate(90)" clip-path="url(#clip-path)">
      <circle id="Ellipse_17556" data-name="Ellipse 17556" cx="3.2" cy="3.2" r="3.2" fill="#fff"/>
      <circle id="Ellipse_17557" data-name="Ellipse 17557" cx="3.2" cy="3.2" r="3.2" transform="translate(0 12.8)" fill="#fff"/>
      <circle id="Ellipse_17558" data-name="Ellipse 17558" cx="3.2" cy="3.2" r="3.2" transform="translate(0 25.6)" fill="#fff"/>
    </g>
  </g>
</svg>
