<svg xmlns="http://www.w3.org/2000/svg" width="44" height="32.485" viewBox="0 0 44 32.485">
  <g id="Previous" transform="translate(44 32.485) rotate(180)">
    <path id="Path_21" data-name="Path 21" d="M25.8,18.563,4.14,32.1a2.747,2.747,0,0,1-1.431.414,2.653,2.653,0,0,1-1.314-.342A2.692,2.692,0,0,1,0,29.8V2.734A2.706,2.706,0,0,1,4.14.439L25.8,13.974a2.71,2.71,0,0,1,0,4.59Z" transform="translate(0 -0.027)" fill="#fff"/>
    <path id="Path_22" data-name="Path 22" d="M25.8,18.563,4.14,32.1a2.747,2.747,0,0,1-1.431.414,2.653,2.653,0,0,1-1.314-.342A2.692,2.692,0,0,1,0,29.8V2.734A2.706,2.706,0,0,1,4.14.439L25.8,13.974a2.71,2.71,0,0,1,0,4.59Z" transform="translate(16.93 -0.027)" fill="#fff" opacity="0.8"/>
  </g>
</svg>
