<svg xmlns="http://www.w3.org/2000/svg" xmlns:xlink="http://www.w3.org/1999/xlink" width="40" height="40" viewBox="0 0 40 40">
  <defs>
    <clipPath id="clip-path">
      <rect width="40" height="40" fill="none"/>
    </clipPath>
  </defs>
  <g id="Profile" clip-path="url(#clip-path)">
    <path id="Path_845" data-name="Path 845" d="M18.1,11.2a5.4,5.4,0,1,0-5.4,5.4A5.378,5.378,0,0,0,18.1,11.2Z" transform="translate(7.3 5.8)" fill="none"/>
    <path id="Path_846" data-name="Path 846" d="M20,0A20,20,0,1,0,40,20,20.059,20.059,0,0,0,20,0Zm0,3A16.986,16.986,0,0,1,37,20a18.209,18.209,0,0,1-2.6,9.2A18.2,18.2,0,0,0,24.8,24a8.437,8.437,0,1,0-13.2-7,8.661,8.661,0,0,0,4,7.2,18.05,18.05,0,0,0-9.2,6.2A16.479,16.479,0,0,1,3,20.2,17.03,17.03,0,0,1,20,3ZM14.6,17A5.4,5.4,0,1,1,20,22.4,5.378,5.378,0,0,1,14.6,17ZM20,37A17.53,17.53,0,0,1,8.6,32.6a16.872,16.872,0,0,1,9.6-6h1.4a6.7,6.7,0,0,1,2,0,8.662,8.662,0,0,1,1,.2,16.031,16.031,0,0,1,10,5A18.536,18.536,0,0,1,20,37Z" fill="#fff"/>
  </g>
</svg>
