<svg xmlns="http://www.w3.org/2000/svg" width="41.739" height="41.739" viewBox="0 0 41.739 41.739">
  <g id="Radio_Button_-_uncheck" data-name="Radio Button - uncheck" fill="none">
    <path d="M20.87,0a20.87,20.87,0,0,1,20.87,20.87,21.252,21.252,0,0,1-5.183,13.765,20.454,20.454,0,0,1-15.686,7.1A20.87,20.87,0,0,1,20.87,0Z" stroke="none"/>
    <path d="M 20.86956405639648 1.500003814697266 C 18.2540340423584 1.500003814697266 15.7175235748291 2.011924743652344 13.33051490783691 3.02154541015625 C 11.02418327331543 3.997043609619141 8.952564239501953 5.393863677978516 7.173213958740234 7.173213958740234 C 5.393863677978516 8.952564239501953 3.997043609619141 11.02418327331543 3.02154541015625 13.33051490783691 C 2.011924743652344 15.7175235748291 1.500003814697266 18.2540340423584 1.500003814697266 20.86956405639648 C 1.500003814697266 23.48509407043457 2.011924743652344 26.02160263061523 3.02154541015625 28.40861511230469 C 3.997043609619141 30.71494293212891 5.393863677978516 32.78656387329102 7.173213958740234 34.56591415405273 C 8.952564239501953 36.34526443481445 11.02418327331543 37.74208450317383 13.33051490783691 38.71758270263672 C 15.7175235748291 39.72720336914063 18.2540340423584 40.2391242980957 20.86956405639648 40.2391242980957 C 23.75729370117188 40.2391242980957 26.6580638885498 39.59437561035156 29.25826263427734 38.37457275390625 C 31.71023368835449 37.22432327270508 33.83167266845703 35.6035041809082 35.39323425292969 33.68734359741211 L 35.39545440673828 33.68462371826172 L 35.39767456054688 33.68191528320313 C 37.00124359130859 31.73289489746094 38.22176361083984 29.66811370849609 39.02534484863281 27.54490280151367 C 39.83075332641602 25.41687393188477 40.2391242980957 23.17096328735352 40.2391242980957 20.86956405639648 C 40.2391242980957 18.2540340423584 39.72720336914063 15.7175235748291 38.71758270263672 13.33051490783691 C 37.74208450317383 11.02418327331543 36.34526443481445 8.952564239501953 34.56591415405273 7.173213958740234 C 32.78656387329102 5.393863677978516 30.71494293212891 3.997043609619141 28.40861511230469 3.02154541015625 C 26.02160263061523 2.011924743652344 23.48509407043457 1.500003814697266 20.86956405639648 1.500003814697266 M 20.86956405639648 3.814697265625e-06 C 32.39550399780273 3.814697265625e-06 41.7391242980957 9.343624114990234 41.7391242980957 20.86956405639648 C 41.7391242980957 25.88332366943359 39.97110366821289 30.48414421081543 36.55601501464844 34.63494491577148 C 33.197265625 38.75638580322266 27.38174438476563 41.7391242980957 20.86956405639648 41.7391242980957 C 9.343624114990234 41.7391242980957 3.814697265625e-06 32.39550399780273 3.814697265625e-06 20.86956405639648 C 3.814697265625e-06 9.343624114990234 9.343624114990234 3.814697265625e-06 20.86956405639648 3.814697265625e-06 Z" stroke="none" fill="#d2d2d2"/>
  </g>
</svg>
