<svg xmlns="http://www.w3.org/2000/svg" width="40" height="40.019" viewBox="0 0 40 40.019">
  <g id="Remove_from_Playlist_Icon" data-name="Remove from Playlist Icon" transform="translate(-1121.696 -205.002)">
    <path id="Path_1025" data-name="Path 1025" d="M1159.145,215.209a1.744,1.744,0,0,0-3.04,1.71,16.522,16.522,0,1,1-6.142-6.217,1.744,1.744,0,1,0,1.747-3.019,20.009,20.009,0,1,0,7.435,7.526Z" fill="#2dceef"/>
    <path id="Path_1026" data-name="Path 1026" d="M1337.243,245.36a1.744,1.744,0,0,0,2.579-2.348c-.213-.234-.435-.466-.658-.689a1.744,1.744,0,1,0-2.466,2.467C1336.884,244.974,1337.067,245.166,1337.243,245.36Z" transform="translate(-183.32 -31.461)" fill="#2dceef"/>
    <path id="Path_1027" data-name="Path 1027" d="M1214.39,280.58a1.744,1.744,0,0,0-2.466,0L1205.8,286.7l-6.123-6.123a1.744,1.744,0,0,0-2.466,2.466l6.123,6.123-6.123,6.123a1.744,1.744,0,1,0,2.466,2.466l6.123-6.123,6.123,6.123a1.744,1.744,0,0,0,2.466-2.466l-6.123-6.123,6.123-6.123A1.744,1.744,0,0,0,1214.39,280.58Z" transform="translate(-64.105 -64.158)" fill="#2dceef"/>
  </g>
</svg>
