<svg xmlns="http://www.w3.org/2000/svg" xmlns:xlink="http://www.w3.org/1999/xlink" width="40" height="40" viewBox="0 0 40 40">
  <defs>
    <clipPath id="clip-path">
      <rect width="40" height="40" fill="none"/>
    </clipPath>
  </defs>
  <g id="Settings" clip-path="url(#clip-path)">
    <path id="Path_847" data-name="Path 847" d="M38.768,21.719a19.012,19.012,0,0,1-1.838-2.43,10.563,10.563,0,0,1,1.43-2.43c1.021-1.215,1.634-2.025,1.021-3.24L37.338,9.367C36.93,8.354,35.7,8.354,34.274,8.152a10.733,10.733,0,0,1-2.86-.405c-.409-.405-.613-2.025-.817-2.835,0-1.62-.2-2.633-1.226-3.038L24.878.254c-1.021-.405-1.838.405-3.064,1.418a19.152,19.152,0,0,1-2.451,1.823,7.255,7.255,0,0,1-2.451-1.62C15.686,1.064,14.664.456,13.643.861L9.353,2.886C8.536,3.291,8.332,4.3,8.332,5.924a10.471,10.471,0,0,1-.409,2.835c-.409.405-2.043.608-2.86.81-1.838.2-2.86.405-3.268,1.418L.365,15.442c-.409,1.013.2,1.823,1.226,3.038a19.012,19.012,0,0,1,1.838,2.43A10.563,10.563,0,0,1,2,23.339C.978,24.555.365,25.567.978,26.58l2.043,4.253c.409,1.013,1.634,1.013,3.064,1.215a10.733,10.733,0,0,1,2.86.405c.409.405.613,2.025.817,2.835,0,1.62.2,2.633,1.226,3.038l4.494,1.62c.2,0,.409.2.613.2.817,0,1.43-.608,2.451-1.418A19.151,19.151,0,0,1,21,36.907a10.7,10.7,0,0,1,2.451,1.418c1.226,1.013,2.247,1.62,3.268,1.013l4.29-2.025c1.021-.405,1.021-1.62,1.226-3.038a10.471,10.471,0,0,1,.409-2.835c.409-.405,2.043-.608,2.86-.81,1.634-.2,2.656-.405,3.064-1.418L40.2,24.757C40.4,23.745,39.79,22.934,38.768,21.719Zm-2.86,5.873a1.236,1.236,0,0,0-.817.2c-1.634.2-3.677.608-4.7,1.62s-1.226,3.038-1.226,4.658v.81L25.9,36.3c-.2-.2-.409-.405-.613-.405-1.43-1.013-3.064-2.228-4.494-2.025-1.43,0-3.064,1.418-4.29,2.43-.2,0-.409.2-.613.405L12.826,35.49a1.209,1.209,0,0,0-.2-.81c-.409-2.025-.613-3.645-1.634-4.658s-3.064-1.215-4.7-1.215H5.472L3.838,25.77c.2-.2.409-.405.409-.608,1.021-1.418,2.247-3.038,2.043-4.455,0-1.418-1.43-2.835-2.451-4.253,0-.2-.2-.405-.409-.608l1.226-3.038a1.236,1.236,0,0,0,.817-.2C7.515,12.2,9.149,12,9.966,10.784c1.021-1.013,1.226-2.835,1.43-4.658v-.81L14.46,3.9c.2.2.409.405.613.405,1.43,1.013,3.064,2.228,4.494,2.025,1.43,0,3.064-1.418,4.29-2.43.2,0,.409-.2.613-.405l3.064,1.215a1.209,1.209,0,0,0,.2.81c.409,2.025.613,3.645,1.634,4.658s3.064,1.215,4.7,1.215h.817l1.634,3.038c-.2.2-.409.405-.409.608-1.021,1.418-2.247,3.038-2.043,4.455,0,1.418,1.43,3.038,2.451,4.253l.613.608Z" transform="translate(-0.237 -0.147)" fill="#fff"/>
    <path id="Path_848" data-name="Path 848" d="M16.755,6.755a7.812,7.812,0,0,0-6,.2,7.27,7.27,0,0,0-4,4.4,7.812,7.812,0,0,0,.2,6,7.893,7.893,0,0,0,7,4.4,6.333,6.333,0,0,0,3.2-.8,7.27,7.27,0,0,0,4-4.4,7.812,7.812,0,0,0-.2-6A7.237,7.237,0,0,0,16.755,6.755Zm1.8,9a4.422,4.422,0,0,1-2.4,2.6,4.817,4.817,0,0,1-6.4-2.4,4.014,4.014,0,0,1-.2-3.4,5.078,5.078,0,0,1,2.6-2.8,7.106,7.106,0,0,1,2-.4,3.9,3.9,0,0,1,1.6.2,4.422,4.422,0,0,1,2.6,2.4A5.02,5.02,0,0,1,18.555,15.755Z" transform="translate(6.194 6.202)" fill="#fff"/>
  </g>
</svg>
