<svg xmlns="http://www.w3.org/2000/svg" xmlns:xlink="http://www.w3.org/1999/xlink" width="32" height="32" viewBox="0 0 32 32">
  <defs>
    <clipPath id="clip-path">
      <rect width="32" height="32" fill="none"/>
    </clipPath>
  </defs>
  <g id="Share" clip-path="url(#clip-path)">
    <path id="Share_18" data-name="Share 18" d="M27.05,22.4A5.072,5.072,0,0,0,23.514,24L9.547,16.889V16a1.338,1.338,0,0,0-.177-.889L23.337,8a4.441,4.441,0,0,0,3.536,1.6,4.767,4.767,0,0,0,4.773-4.8A4.516,4.516,0,0,0,27.05,0a4.767,4.767,0,0,0-4.773,4.8v.711L8.133,12.622A4.244,4.244,0,0,0,4.773,11.2a4.8,4.8,0,0,0,0,9.6,4.441,4.441,0,0,0,3.536-1.6l14.144,7.289V27.2A4.774,4.774,0,1,0,32,27.2,5.039,5.039,0,0,0,27.05,22.4Z" fill="#fff"/>
  </g>
</svg>
