<svg xmlns="http://www.w3.org/2000/svg" width="41.739" height="41.739" viewBox="0 0 41.739 41.739">
  <path id="Share_Icon" data-name="Share Icon" d="M35.652,29.565a5.891,5.891,0,0,0-4.522,2.087L12,22.261a3.39,3.39,0,0,0,.174-1.391,6.179,6.179,0,0,0-.348-1.739L30.609,9.565a6.34,6.34,0,0,0,5.043,2.609,6.162,6.162,0,0,0,6.087-6.087,6.087,6.087,0,1,0-12.174,0,2.206,2.206,0,0,0,.174,1.043L10.609,16.87a6.178,6.178,0,0,0-4.522-2.087,6.087,6.087,0,1,0,0,12.174,5.854,5.854,0,0,0,4.7-2.261l18.957,9.391a4.815,4.815,0,0,0-.174,1.565,6.087,6.087,0,1,0,6.087-6.087Z" fill="#2dceef"/>
</svg>
