<svg xmlns="http://www.w3.org/2000/svg" xmlns:xlink="http://www.w3.org/1999/xlink" width="31.963" height="32" viewBox="0 0 31.963 32">
  <defs>
    <linearGradient id="linear-gradient" x1="0.937" y1="0.176" x2="0" y2="1.829" gradientUnits="objectBoundingBox">
      <stop offset="0" stop-color="#66d5f7"/>
      <stop offset="1" stop-color="#0eafe1"/>
    </linearGradient>
  </defs>
  <g id="Shuffle_-_Active" data-name="Shuffle - Active" transform="translate(-610.061 -1025.176)">
    <g id="Group_24" data-name="Group 24" transform="translate(610.094 1025.176)" opacity="0.9">
      <g id="Group_23" data-name="Group 23">
        <path id="Path_26" data-name="Path 26" d="M31.63,6.272,25.649.279A1.032,1.032,0,0,0,24.586.013c-.4.266-.664.533-.664.932V4.008H11.031A10.987,10.987,0,0,0,0,14.929a.979.979,0,0,0,1.063,1.065H5.05a.909.909,0,0,0,.93-.932A4.911,4.911,0,0,1,10.9,10.134H23.922v2.93a1,1,0,0,0,.664.932.832.832,0,0,0,1.063-.266l5.98-5.993A1.047,1.047,0,0,0,31.63,6.272Z" transform="translate(0 0.039)" fill="url(#linear-gradient)"/>
      </g>
    </g>
    <g id="Group_25" data-name="Group 25" transform="translate(610.061 1041.142)" opacity="0.8">
      <path id="Path_27" data-name="Path 27" d="M30.841,12H26.854a.909.909,0,0,0-.93.932,4.911,4.911,0,0,1-4.917,4.928H7.982V14.93A1,1,0,0,0,7.318,14a.832.832,0,0,0-1.063.266L.274,20.257a1.047,1.047,0,0,0,0,1.465l5.98,5.993a1.032,1.032,0,0,0,1.063.266,1.186,1.186,0,0,0,.664-1.065v-2.93H20.873a10.873,10.873,0,0,0,10.9-10.92C31.9,12.4,31.505,12,30.841,12Z" transform="translate(0.025 -12)" fill="url(#linear-gradient)"/>
    </g>
  </g>
</svg>
