<svg xmlns="http://www.w3.org/2000/svg" xmlns:xlink="http://www.w3.org/1999/xlink" width="36.545" height="32" viewBox="0 0 36.545 32">
  <defs>
    <linearGradient id="linear-gradient" x1="1" y1="-0.176" x2="0.055" y2="1" gradientUnits="objectBoundingBox">
      <stop offset="0" stop-color="#66d5f7"/>
      <stop offset="1" stop-color="#0eafe1"/>
    </linearGradient>
  </defs>
  <g id="Shuffle_-_Active" data-name="Shuffle - Active" transform="translate(-78 -1024.73)">
    <g id="Group_17" data-name="Group 17" transform="translate(78 1029.322)" style="isolation: isolate">
      <g id="Group_16" data-name="Group 16">
        <path id="Path_23" data-name="Path 23" d="M36.088,22.643l-6.852-5.786a1.15,1.15,0,0,0-1.218-.152,1.02,1.02,0,0,0-.609,1.066v3.5H25.429a4.341,4.341,0,0,1-3.807-2.132L14.161,7.264A9.217,9.217,0,0,0,6.548,3H0V7.568H6.548A4.341,4.341,0,0,1,10.354,9.7l7.461,11.877a8.932,8.932,0,0,0,7.766,4.264h1.827v3.35a1.282,1.282,0,0,0,.609,1.066c.152,0,.3.152.457.152.3,0,.457-.152.761-.3l6.852-5.786a1.085,1.085,0,0,0,.457-.914A1.391,1.391,0,0,0,36.088,22.643Z" transform="translate(0 -3)" fill="url(#linear-gradient)"/>
      </g>
    </g>
    <g id="Group_19" data-name="Group 19" transform="translate(95.207 1024.73)" opacity="0.8">
      <g id="Group_18" data-name="Group 18">
        <path id="Path_24" data-name="Path 24" d="M30.181,5.947,23.329.16a1.16,1.16,0,0,0-1.218,0,1.252,1.252,0,0,0-.609.914v3.5H19.523A9.277,9.277,0,0,0,11.757,8.84l-.457.609,2.741,4.264,1.523-2.589a5.288,5.288,0,0,1,3.959-1.979H21.5v3.35a1.282,1.282,0,0,0,.609,1.066c.152.152.3.152.609.152s.457-.152.761-.3l6.852-5.786a1.163,1.163,0,0,0,.3-.761A1.316,1.316,0,0,0,30.181,5.947Z" transform="translate(-11.3 0.015)" fill="url(#linear-gradient)"/>
      </g>
    </g>
    <g id="Group_21" data-name="Group 21" transform="translate(78 1042.874)" opacity="0.8">
      <g id="Group_20" data-name="Group 20">
        <path id="Path_25" data-name="Path 25" d="M11.877,11.9l-1.523,2.589A4.527,4.527,0,0,1,6.548,16.62H0v4.568H6.548a9.277,9.277,0,0,0,7.766-4.264l.457-.609Z" transform="translate(0 -11.9)" fill="url(#linear-gradient)"/>
      </g>
    </g>
  </g>
</svg>
