<svg xmlns="http://www.w3.org/2000/svg" width="42" height="42" viewBox="0 0 42 42">
  <g id="Songs_-_Icon" data-name="Songs - Icon" transform="translate(-1634.557 -32.069)">
    <path id="Path_1017" data-name="Path 1017" d="M1670.721,32.069h-30.328a5.842,5.842,0,0,0-5.836,5.836V68.233a5.842,5.842,0,0,0,5.836,5.836h30.328a5.842,5.842,0,0,0,5.836-5.836V37.9A5.842,5.842,0,0,0,1670.721,32.069Zm-30.328,2.693h30.328a3.146,3.146,0,0,1,3.142,3.142V63.272H1637.25V37.9A3.146,3.146,0,0,1,1640.393,34.762Zm30.328,36.613h-30.328a3.146,3.146,0,0,1-3.142-3.142V65.965h36.613v2.268A3.146,3.146,0,0,1,1670.721,71.376Z" transform="translate(0)" fill="#2dceef"/>
    <path id="Path_1018" data-name="Path 1018" d="M1791.093,193.943a3.6,3.6,0,0,0,3.594-3.594c0-.082,0-.164-.009-.245a1.341,1.341,0,0,0,.009-.156v-8.141l5.739-1.992v5.258a3.595,3.595,0,1,0,2.693,3.48c0-.071,0-.141-.007-.211,0-.044.007-.089.007-.134V177.922a1.347,1.347,0,0,0-1.788-1.272l-8.433,2.927a1.347,1.347,0,0,0-.905,1.272v6.019a3.595,3.595,0,1,0-.9,7.074Zm8.433-4.489a.9.9,0,1,1,.9-.9A.9.9,0,0,1,1799.526,189.454Zm-8.433-.006a.9.9,0,1,1-.9.9A.9.9,0,0,1,1791.093,189.448Z" transform="translate(-146.076 -138.019)" fill="#2dceef"/>
    <path id="Path_1019" data-name="Path 1019" d="M2131.342,310.2a3.6,3.6,0,0,0,3.594-3.594c0-.112-.006-.224-.016-.333a1.39,1.39,0,0,0,.016-.208v-8.141l4.939-1.714a1.347,1.347,0,0,0-.883-2.544l-5.844,2.028a1.347,1.347,0,0,0-.905,1.272v6.16a3.595,3.595,0,1,0-.9,7.074Zm0-4.5a.9.9,0,1,1-.9.9A.9.9,0,0,1,2131.342,305.7Z" transform="translate(-471.051 -249.779)" fill="#2dceef"/>
  </g>
</svg>
